<?xml version="1.0" encoding="utf-8"?>
<!-- Generator: Adobe Illustrator 24.0.2, SVG Export Plug-In . SVG Version: 6.00 Build 0)  -->
<svg version="1.1" id="Capa_1" xmlns="http://www.w3.org/2000/svg" xmlns:xlink="http://www.w3.org/1999/xlink" x="0px" y="0px"
	 viewBox="0 0 1175 851" style="enable-background:new 0 0 1175 851;" xml:space="preserve">
<style type="text/css">
	.st0{fill:#A6D10D;}
</style>
<path class="st0" d="M0,483v159c7,43,28,77,72,91c44,13,96,17,146,18s110,1,160,4s102,7,149,15s90,15,134,28s83,25,128,35
	s100,18,147,17c48-1,95-8,133-31c38-22,59-48,77-87c19-39,25-90,29-135V461c-6.6-126.2-69.8-242.7-172-317
	C937.9,95.7,864.8,59.1,787,36C694.3,5.3,596.2-5.6,499,4c-46,6-96,14-139,24s-85,22-124,39s-71,34-103,60c-32,27-53,52-75,88
	c-21,37-33,77-42,121C7,379,2,437,0,483z"/>
</svg>
