<?xml version="1.0" encoding="utf-8"?>
<!-- Generator: Adobe Illustrator 24.0.2, SVG Export Plug-In . SVG Version: 6.00 Build 0)  -->
<svg version="1.1" id="Capa_1" xmlns:v="https://svgstorm.com"
	 xmlns="http://www.w3.org/2000/svg" xmlns:xlink="http://www.w3.org/1999/xlink" x="0px" y="0px" viewBox="0 0 4990 315"
	 style="enable-background:new 0 0 4990 315;" xml:space="preserve">
<style type="text/css">
	.st0{fill:#0A0A0A;}
</style>
<g>
	<path class="st0" d="M0,146v168.7h4990V149c-108.3-1.5-222.6,2.5-328.3,11c-105.7,8.5-203.3,21.1-307.4,32.9
		c-104,11.8-204.2,23.1-309.4,30.9s-219.5,13.5-326.3,14s-217.7-8.2-320.1-20.2c-102.4-12-193.9-28.6-293.6-46.8
		c-99.7-18.1-188.3-38.7-290.5-49.9c-102.2-11.2-215.6-19.4-321.4-18.9c-105.8,0.5-218,8.7-320.3,20
		c-102.3,11.3-193,28.1-292.4,47.9c-99.4,19.8-189.5,37.2-292.4,47.9c-103,10.6-212.4,19.5-319.4,21s-224.6-2.6-329.3-11
		s-201.4-22-304.4-35.9c-103-13.9-199.9-26.9-305.4-34.9S109,143,0,146z"/>
</g>
</svg>
