<svg xmlns="http://www.w3.org/2000/svg" xmlns:xlink="http://www.w3.org/1999/xlink" width="1080" zoomAndPan="magnify" viewBox="0 0 810 809.999993" height="1080" preserveAspectRatio="xMidYMid meet" version="1.0"><path fill="#232320" d="M 347.296875 668.03125 C 348.71875 606.195312 347.894531 540.390625 343.921875 471.074219 C 340.613281 413.296875 335.40625 358.191406 328.875 305.984375 C 366.414062 306.246094 403.949219 306.511719 441.496094 306.773438 C 432.667969 351.179688 425.296875 399.878906 420.699219 452.398438 C 415.011719 517.335938 414.523438 577.261719 416.992188 631.074219 C 393.765625 643.394531 370.53125 655.710938 347.300781 668.03125 Z M 347.296875 668.03125 " fill-opacity="1" fill-rule="nonzero"/><path fill="#f4650b" d="M 543.839844 339.082031 C 541.09375 334.925781 538.328125 330.921875 535.546875 327.058594 C 522.609375 330.898438 509.671875 334.734375 496.734375 338.574219 C 504.335938 341.753906 511.941406 344.925781 519.546875 348.105469 C 523.648438 356.511719 527.746094 364.921875 531.847656 373.335938 C 528.195312 375.796875 524.496094 378.367188 520.777344 381.050781 C 518.925781 382.386719 517.109375 383.722656 515.332031 385.050781 C 471.726562 381.523438 428.121094 377.992188 384.515625 374.46875 C 384.292969 374.566406 383.894531 374.722656 383.625 374.835938 L 383.625 414.503906 C 449.273438 414.300781 512.542969 413.894531 519.351562 413.859375 C 523.964844 413.859375 528.578125 413.859375 533.183594 413.859375 C 534.457031 413.632812 536.167969 413.203125 537.984375 412.34375 C 540.953125 410.941406 542.753906 409.085938 543.683594 407.960938 C 549.734375 395.175781 555.789062 382.378906 561.839844 369.59375 C 556.726562 359.828125 550.777344 349.605469 543.839844 339.105469 Z M 543.839844 339.082031 " fill-opacity="1" fill-rule="nonzero"/><path fill="#f4650b" d="M 224.96875 339.082031 C 227.714844 334.925781 230.484375 330.921875 233.265625 327.058594 C 246.203125 330.898438 259.140625 334.734375 272.078125 338.574219 C 264.472656 341.753906 256.867188 344.925781 249.261719 348.105469 C 245.160156 356.511719 241.066406 364.921875 236.960938 373.335938 C 240.613281 375.796875 244.3125 378.367188 248.03125 381.050781 C 249.886719 382.386719 251.699219 383.722656 253.476562 385.050781 C 297.082031 381.523438 340.6875 377.992188 384.292969 374.46875 C 384.515625 374.566406 384.914062 374.722656 385.183594 374.835938 L 385.183594 414.503906 C 319.539062 414.300781 256.265625 413.894531 249.457031 413.859375 C 244.84375 413.859375 240.234375 413.859375 235.628906 413.859375 C 234.351562 413.632812 232.640625 413.203125 230.828125 412.34375 C 227.859375 410.941406 226.058594 409.085938 225.128906 407.960938 C 219.074219 395.175781 213.023438 382.378906 206.96875 369.59375 C 212.085938 359.828125 218.03125 349.605469 224.96875 339.105469 Z M 224.96875 339.082031 " fill-opacity="1" fill-rule="nonzero"/><path fill="#f4650b" d="M 527.648438 401.585938 C 525.226562 397.433594 522.773438 393.425781 520.3125 389.566406 C 508.875 393.40625 497.429688 397.238281 485.992188 401.078125 C 492.71875 404.257812 499.441406 407.429688 506.167969 410.609375 C 509.789062 419.015625 513.421875 427.425781 517.042969 435.839844 C 513.808594 438.300781 510.546875 440.871094 507.253906 443.558594 C 505.621094 444.890625 504.015625 446.226562 502.441406 447.554688 C 463.882812 444.03125 425.324219 440.496094 386.761719 436.972656 C 386.558594 437.070312 386.203125 437.226562 385.972656 437.339844 L 385.972656 477.007812 C 444.023438 476.804688 499.972656 476.398438 505.996094 476.363281 C 510.066406 476.363281 514.148438 476.363281 518.226562 476.363281 C 519.359375 476.136719 520.867188 475.710938 522.472656 474.847656 C 525.097656 473.445312 526.6875 471.59375 527.511719 470.46875 C 532.859375 457.679688 538.222656 444.886719 543.570312 432.097656 C 539.046875 422.332031 533.78125 412.109375 527.65625 401.609375 Z M 527.648438 401.585938 " fill-opacity="1" fill-rule="nonzero"/><path fill="#f4650b" d="M 245.671875 401.585938 C 248.09375 397.433594 250.546875 393.425781 253.003906 389.566406 C 264.441406 393.40625 275.886719 397.238281 287.324219 401.078125 C 280.597656 404.257812 273.878906 407.429688 267.148438 410.609375 C 263.527344 419.015625 259.898438 427.425781 256.273438 435.839844 C 259.507812 438.300781 262.769531 440.871094 266.0625 443.558594 C 267.699219 444.890625 269.300781 446.226562 270.878906 447.554688 C 309.433594 444.03125 347.992188 440.496094 386.558594 436.972656 C 386.761719 437.070312 387.113281 437.226562 387.34375 437.339844 L 387.34375 477.007812 C 329.296875 476.804688 273.34375 476.398438 267.324219 476.363281 C 263.25 476.363281 259.171875 476.363281 255.089844 476.363281 C 253.957031 476.136719 252.449219 475.710938 250.84375 474.847656 C 248.21875 473.445312 246.628906 471.59375 245.804688 470.46875 C 240.457031 457.679688 235.09375 444.886719 229.746094 432.097656 C 234.269531 422.332031 239.535156 412.109375 245.664062 401.609375 Z M 245.671875 401.585938 " fill-opacity="1" fill-rule="nonzero"/><path fill="#f4650b" d="M 490.078125 463.46875 C 488.265625 459.878906 486.425781 456.40625 484.582031 453.058594 C 476.003906 456.382812 467.429688 459.703125 458.851562 463.027344 C 463.890625 465.78125 468.929688 468.523438 473.976562 471.277344 C 476.691406 478.550781 479.414062 485.835938 482.128906 493.109375 C 479.707031 495.238281 477.261719 497.460938 474.789062 499.792969 C 473.558594 500.949219 472.359375 502.101562 471.179688 503.25 C 442.265625 500.199219 413.355469 497.144531 384.441406 494.085938 C 384.421875 494.09375 384.390625 494.113281 384.367188 494.121094 C 384.34375 494.109375 384.308594 494.09375 384.292969 494.085938 C 355.378906 497.136719 326.46875 500.191406 297.554688 503.25 C 296.378906 502.101562 295.171875 500.949219 293.949219 499.792969 C 291.480469 497.46875 289.027344 495.238281 286.605469 493.109375 C 289.320312 485.828125 292.042969 478.550781 294.757812 471.277344 C 299.796875 468.523438 304.835938 465.78125 309.886719 463.027344 C 301.304688 459.703125 292.734375 456.382812 284.152344 453.058594 C 282.308594 456.40625 280.46875 459.878906 278.65625 463.46875 C 274.058594 472.558594 270.113281 481.402344 266.722656 489.863281 C 270.734375 500.933594 274.746094 512.003906 278.761719 523.074219 C 279.375 524.046875 280.566406 525.652344 282.539062 526.867188 C 283.746094 527.609375 284.871094 527.976562 285.71875 528.171875 C 288.78125 528.171875 291.832031 528.171875 294.890625 528.171875 C 299.371094 528.210938 340.695312 528.554688 383.851562 528.726562 C 384.023438 528.726562 384.195312 528.726562 384.367188 528.726562 C 384.539062 528.726562 384.710938 528.726562 384.886719 528.726562 C 428.039062 528.546875 469.363281 528.203125 473.84375 528.164062 C 476.894531 528.164062 479.953125 528.164062 483.015625 528.164062 C 483.863281 527.96875 484.996094 527.601562 486.195312 526.859375 C 488.167969 525.644531 489.359375 524.039062 489.976562 523.066406 C 493.988281 511.996094 498 500.925781 502.011719 489.855469 C 498.621094 481.402344 494.675781 472.558594 490.078125 463.460938 Z M 490.078125 463.46875 " fill-opacity="1" fill-rule="nonzero"/><path fill="#a6d10d" d="M 569.683594 181.320312 C 571.386719 183.457031 572.96875 185.683594 574.46875 187.964844 C 577.816406 184.449219 581.371094 181.042969 585.03125 177.734375 C 583.34375 175.613281 581.535156 173.558594 579.539062 171.609375 C 561.269531 153.710938 533.21875 157.171875 519.984375 179.820312 C 519.308594 180.976562 518.761719 182.203125 518.121094 183.375 C 515.421875 177.808594 511.425781 171.921875 505.320312 166.84375 C 501.691406 163.828125 489.277344 153.5625 473.429688 155.773438 C 462.5625 157.289062 452.332031 163.808594 445.753906 175.050781 C 444.523438 177.148438 443.484375 179.347656 442.371094 181.515625 C 439.441406 177.667969 435.75 173.617188 430.800781 169.921875 C 425.078125 165.644531 413.476562 156.9375 399.195312 158.8125 C 388.222656 160.253906 377.878906 166.785156 371.234375 178.125 C 362.804688 192.546875 357.570312 208.574219 350.984375 223.914062 C 347.910156 231.082031 344.949219 238.289062 341.910156 245.476562 C 341.871094 245.488281 341.84375 245.511719 341.804688 245.527344 C 341.820312 245.558594 341.835938 245.578125 341.851562 245.609375 C 339.945312 250.117188 338.046875 254.632812 335.953125 259.066406 C 332.917969 265.492188 328.289062 271.289062 320.640625 273.824219 C 311.203125 276.945312 302.136719 275.476562 296.199219 268.191406 C 289.726562 260.25 284.863281 251.175781 279.382812 242.542969 C 275.371094 244.589844 271.335938 246.621094 267.285156 248.617188 C 270.414062 254.503906 273.578125 260.378906 276.886719 266.183594 C 278.992188 269.894531 281.828125 273.382812 284.941406 276.433594 C 302.894531 294.066406 329.960938 292.320312 343.996094 271.335938 C 346.265625 267.9375 348.246094 264.367188 350.109375 260.738281 C 350.550781 261.523438 350.953125 262.328125 351.40625 263.109375 C 353.511719 266.820312 356.347656 270.308594 359.46875 273.359375 C 377.421875 290.992188 404.484375 289.246094 418.515625 268.261719 C 419.902344 266.183594 421.09375 263.992188 422.316406 261.816406 C 423.425781 263.835938 424.484375 265.867188 425.625 267.871094 C 427.734375 271.582031 430.566406 275.070312 433.6875 278.121094 C 451.640625 295.753906 478.710938 294.007812 492.742188 273.023438 C 500.675781 261.148438 505.566406 247.453125 511.222656 234.367188 C 517.164062 220.613281 522.246094 206.542969 528.03125 192.726562 C 529.539062 189.128906 531.953125 185.753906 534.472656 182.632812 C 543.863281 170.984375 560.460938 169.738281 569.691406 181.328125 Z M 410.484375 255.996094 C 407.445312 262.425781 402.816406 268.230469 395.160156 270.757812 C 385.726562 273.878906 376.664062 272.40625 370.726562 265.125 C 365.617188 258.855469 361.5 251.886719 357.300781 244.972656 C 359.023438 240.863281 360.726562 236.746094 362.484375 232.679688 C 368.429688 218.925781 373.507812 204.855469 379.289062 191.039062 C 380.796875 187.441406 383.210938 184.066406 385.734375 180.945312 C 395.121094 169.296875 411.71875 168.050781 420.953125 179.640625 C 422.273438 181.296875 428.640625 187.214844 434.296875 199.042969 C 434.308594 199.078125 434.316406 199.09375 434.332031 199.132812 C 431.386719 206.363281 428.59375 213.675781 425.511719 220.84375 C 420.488281 232.558594 415.933594 244.460938 410.484375 255.996094 Z M 499.734375 225.609375 C 494.699219 237.324219 490.15625 249.226562 484.703125 260.761719 C 481.664062 267.1875 477.039062 272.992188 469.386719 275.519531 C 459.953125 278.640625 450.890625 277.171875 444.945312 269.886719 C 439.109375 262.734375 434.566406 254.65625 429.710938 246.808594 C 432.195312 241.085938 434.535156 235.296875 436.996094 229.605469 C 442.933594 215.851562 448.011719 201.78125 453.800781 187.964844 C 455.308594 184.363281 457.726562 180.988281 460.246094 177.871094 C 469.636719 166.222656 486.234375 164.976562 495.457031 176.566406 C 501.21875 183.800781 505.671875 191.941406 510.179688 200.039062 C 506.609375 208.523438 503.355469 217.164062 499.726562 225.613281 Z M 499.734375 225.609375 " fill-opacity="1" fill-rule="nonzero"/></svg>